<svg width="30" height="30" viewBox="0 0 30 30" fill="none" xmlns="http://www.w3.org/2000/svg">
<path fill-rule="evenodd" clip-rule="evenodd" d="M0 14.9651C0 6.69966 6.69966 0 14.9651 0C23.2304 0 29.9301 6.70058 29.9301 14.9651C29.9301 23.2296 23.2305 29.9301 14.9651 29.9301C6.69966 29.9301 0 23.2285 0 14.9651ZM2.80603 14.9651C2.80603 21.6805 8.24949 27.1241 14.9651 27.1241C21.6805 27.1241 27.1241 21.6807 27.1241 14.9651C27.1241 8.24949 21.6807 2.80592 14.9651 2.80592C8.24949 2.80592 2.80603 8.24959 2.80603 14.9651ZM14.8958 10.758C15.0015 10.569 14.9379 10.3277 14.7527 10.2183L13.7389 9.63C13.5536 9.52151 13.3133 9.58695 13.2076 9.77497L11.6541 12.5173L9.94151 15.5374L8.5124 18.0591C8.40575 18.2471 8.47027 18.4893 8.65551 18.596L9.66935 19.1861C9.85459 19.2946 10.094 19.2292 10.2015 19.0421L12.1872 15.5374L13.4704 13.273L14.8958 10.758ZM12.5303 16.845L14.0895 14.0334H16.6307L18.0337 16.845H12.5303ZM9.6038 14.0334H7.48253C6.96627 14.0334 6.54719 14.4534 6.54719 14.9706V15.9087C6.54719 16.4259 6.96616 16.845 7.48253 16.845H7.92031C7.92021 16.845 9.6038 14.0334 9.6038 14.0334ZM8.32336 19.0496L9.33627 19.6388C9.52336 19.7464 9.52993 19.9353 9.35229 20.0579L8.0438 20.9614C7.86606 21.0829 7.74164 21.0053 7.76599 20.7902L7.94178 19.2451C7.96695 19.0309 8.13812 18.942 8.32336 19.0496ZM20.4039 15.5758L20.3834 15.5374L19.7436 14.3056L19.7315 14.2841L19.6595 14.1438L19.6052 14.0418L19.5594 13.9521L19.4752 13.7912L19.449 13.7416L19.3536 13.5574L19.3255 13.5032C18.611 12.1366 17.714 10.4522 17.1612 9.56743C16.881 9.11818 16.5734 8.58236 16.2691 8.0522C15.5223 6.75122 14.7951 5.48427 14.5386 5.6139C14.1164 5.82694 15.1367 8.14748 15.7872 9.6268L15.7872 9.62681C15.9162 9.92031 16.0307 10.1807 16.1165 10.3849C16.6346 11.6177 18.6568 16.3448 19.0618 16.5505C19.4243 16.7347 19.5889 16.6626 19.8133 16.5644C19.8396 16.5528 19.8668 16.5409 19.8951 16.5291C20.1672 16.4138 20.6517 16.035 20.4039 15.5758ZM20.4543 14.0334H22.4475C22.9648 14.0334 23.3828 14.4534 23.3828 14.9706V15.9087C23.3828 16.426 22.9647 16.845 22.4475 16.845H22.0584L20.4543 14.0334ZM21.5599 18.0122L21.0773 17.0732C20.9678 16.8608 20.7106 16.7739 20.5058 16.8805L19.924 17.1836C19.7191 17.2903 19.6546 17.5428 19.7809 17.7457L20.3917 18.7231C20.5179 18.9251 20.7835 18.9915 20.9818 18.869L21.3971 18.6164C21.5955 18.4967 21.6684 18.2237 21.5599 18.0122ZM21.3972 19.383C21.402 19.3784 21.4067 19.3738 21.4112 19.3694C23.1393 18.3833 22.887 21.3825 22.8754 21.5204C22.8751 21.5236 22.875 21.5253 22.875 21.5253C22.8136 21.3286 22.5608 21.2192 22.2657 21.0914C21.9405 20.9506 21.5639 20.7875 21.3354 20.4609C20.9115 19.8564 21.239 19.5373 21.3972 19.383Z" fill="white"/>
</svg>
